<svg width="36" height="36" viewBox="0 0 36 36" fill="none" xmlns="http://www.w3.org/2000/svg">
<g clip-path="url(#clip0_36_340)">
<path d="M18 36C27.9411 36 36 27.9411 36 18C36 8.05888 27.9411 0 18 0C8.05888 0 0 8.05888 0 18C0 27.9411 8.05888 36 18 36Z" fill="#A4A3A1"/>
<path d="M23.8528 5.52515H19.8654C17.4991 5.52515 14.8671 6.52037 14.8671 9.9504C14.8787 11.1455 14.8671 12.2902 14.8671 13.5783H12.1296V17.9344H14.9518V30.475H20.1377V17.8517H23.5606L23.8703 13.5661H20.0484C20.0484 13.5661 20.0569 11.6597 20.0484 11.1061C20.0484 9.75059 21.4588 9.82822 21.5436 9.82822C22.2148 9.82822 23.5198 9.83017 23.8548 9.82822V5.52515H23.8528Z" fill="#FDFDFD"/>
</g>
<defs>
<clipPath id="clip0_36_340">
<rect width="36" height="36" fill="white"/>
</clipPath>
</defs>
</svg>
