<svg width="37" height="36" viewBox="0 0 37 36" fill="none" xmlns="http://www.w3.org/2000/svg">
<g clip-path="url(#clip0_36_345)">
<path d="M12.9034 18C12.9034 14.6864 15.5889 11.9995 18.9025 11.9995C22.216 11.9995 24.903 14.6864 24.903 18C24.903 21.3136 22.216 24.0005 18.9025 24.0005C15.5889 24.0005 12.9034 21.3136 12.9034 18ZM9.65966 18C9.65966 23.1048 13.7976 27.2428 18.9025 27.2428C24.0073 27.2428 28.1453 23.1048 28.1453 18C28.1453 12.8952 24.0073 8.75719 18.9025 8.75719C13.7976 8.75719 9.65966 12.8952 9.65966 18ZM26.3511 8.39079C26.3511 9.58304 27.318 10.5514 28.5117 10.5514C29.7039 10.5514 30.6723 9.58304 30.6723 8.39079C30.6723 7.19855 29.7054 6.23166 28.5117 6.23166C27.318 6.23166 26.3511 7.19855 26.3511 8.39079ZM11.6298 32.6515C9.87484 32.5716 8.92104 32.2793 8.28712 32.0322C7.44673 31.705 6.8477 31.3153 6.21668 30.6858C5.58712 30.0562 5.196 29.4572 4.87032 28.6168C4.62314 27.9829 4.3309 27.0291 4.25093 25.2742C4.16369 23.3767 4.14625 22.8068 4.14625 18C4.14625 13.1932 4.16515 12.6247 4.25093 10.7258C4.3309 8.97092 4.6246 8.01858 4.87032 7.3832C5.19746 6.54281 5.58712 5.94378 6.21668 5.31276C6.84625 4.6832 7.44528 4.29208 8.28712 3.9664C8.92104 3.71922 9.87484 3.42698 11.6298 3.34701C13.5272 3.25977 14.0971 3.24233 18.9025 3.24233C23.7093 3.24233 24.2778 3.26123 26.1766 3.34701C27.9315 3.42698 28.8839 3.72068 29.5193 3.9664C30.3597 4.29208 30.9587 4.6832 31.5897 5.31276C32.2193 5.94233 32.6089 6.54281 32.9361 7.3832C33.1832 8.01712 33.4755 8.97092 33.5555 10.7258C33.6427 12.6247 33.6601 13.1932 33.6601 18C33.6601 22.8053 33.6427 23.3753 33.5555 25.2742C33.4755 27.0291 33.1818 27.9829 32.9361 28.6168C32.6089 29.4572 32.2193 30.0562 31.5897 30.6858C30.9601 31.3153 30.3597 31.705 29.5193 32.0322C28.8853 32.2793 27.9315 32.5716 26.1766 32.6515C24.2792 32.7388 23.7093 32.7562 18.9025 32.7562C14.0971 32.7562 13.5272 32.7388 11.6298 32.6515ZM11.4815 0.109047C9.56515 0.196284 8.25659 0.500162 7.11232 0.945073C5.9288 1.40452 4.92557 2.021 3.92379 3.02132C2.92347 4.02165 2.30699 5.02488 1.84754 6.20985C1.40263 7.35412 1.09875 8.66268 1.01151 10.579C0.922821 12.4982 0.902466 13.1118 0.902466 18C0.902466 22.8882 0.922821 23.5018 1.01151 25.421C1.09875 27.3373 1.40263 28.6459 1.84754 29.7901C2.30699 30.9737 2.92201 31.9784 3.92379 32.9787C4.92411 33.979 5.92734 34.594 7.11232 35.0549C8.25804 35.4998 9.56515 35.8037 11.4815 35.891C13.4021 35.9782 14.0143 36 18.9025 36C23.7921 36 24.4042 35.9796 26.3235 35.891C28.2398 35.8037 29.5483 35.4998 30.6926 35.0549C31.8761 34.594 32.8794 33.979 33.8811 32.9787C34.8815 31.9784 35.4965 30.9737 35.9574 29.7901C36.4023 28.6459 36.7076 27.3373 36.7934 25.421C36.8807 23.5003 36.901 22.8882 36.901 18C36.901 13.1118 36.8807 12.4982 36.7934 10.579C36.7062 8.66268 36.4023 7.35412 35.9574 6.20985C35.4965 5.02633 34.8815 4.0231 33.8811 3.02132C32.8808 2.021 31.8761 1.40452 30.6941 0.945073C29.5483 0.500162 28.2398 0.19483 26.3249 0.109047C24.4057 0.0218094 23.7921 0 18.9039 0C14.0143 0 13.4021 0.0203554 11.4815 0.109047Z" fill="#A4A3A1"/>
</g>
<defs>
<clipPath id="clip0_36_345">
<rect width="36" height="36" fill="white" transform="translate(0.902466)"/>
</clipPath>
</defs>
</svg>
