<svg width="80" height="28" viewBox="0 0 80 28" fill="none" xmlns="http://www.w3.org/2000/svg">
<path d="M18.7901 11.595L18.2951 11.97C18.2551 11.94 18.2001 11.925 18.1301 11.925C18.0301 11.925 17.9251 11.96 17.8151 12.03C17.7051 12.09 17.4951 12.275 17.1851 12.585V20.325L17.8601 21H14.1101L14.6651 20.445L14.7851 13.74C14.6751 13.78 14.4501 13.925 14.1101 14.175C13.6601 14.465 13.2101 14.61 12.7601 14.61H12.5051V19.215L13.2551 19.95H9.25012L9.98512 19.215V14.85C9.87512 14.78 9.69012 14.68 9.43012 14.55C9.17012 14.42 8.90512 14.29 8.63512 14.16C8.25512 13.97 8.03012 13.83 7.96012 13.74C7.65012 13.33 7.49512 12.99 7.49512 12.72C7.49512 12.65 7.51012 12.58 7.54012 12.51C7.59012 12.37 7.72512 12.24 7.94512 12.12C8.16512 12 8.35512 11.95 8.51512 11.97C8.61512 11.97 8.86012 11.99 9.25012 12.03C9.10012 12.1 8.89512 12.22 8.63512 12.39C8.51512 12.47 8.45512 12.59 8.45512 12.75C8.45512 13.08 8.60012 13.29 8.89012 13.38C9.01012 13.42 9.40012 13.54 10.0601 13.74V7.17L9.37012 6.435H13.0601L12.6701 6.825V13.44C12.7001 13.46 12.7351 13.47 12.7751 13.47C12.9451 13.47 13.1851 13.38 13.4951 13.2C13.7051 13.07 14.1351 12.865 14.7851 12.585V6.495L14.2901 6H17.8001L17.3051 6.495V11.715C17.4251 11.715 17.5901 11.675 17.8001 11.595C18.0401 11.515 18.3701 11.515 18.7901 11.595ZM25.2391 8.58C25.2991 8.91 25.2291 10.12 25.0291 12.21L24.5191 13.08C24.2391 13.37 24.0341 13.545 23.9041 13.605C23.7841 13.655 23.5641 13.69 23.2441 13.71C22.8941 13.73 22.6641 13.71 22.5541 13.65C22.4941 13.62 22.4341 13.56 22.3741 13.47C22.2341 13.28 22.0841 12.98 21.9241 12.57L21.6691 16.08L20.9941 14.955L20.8441 18.36L20.3191 17.64L20.1241 21L19.3441 15.255L19.8091 15.675L19.2391 11.79L19.7491 12.15L19.3891 6.36L19.2841 6L21.7741 6.045L21.8191 6.885C22.6191 6.545 23.1191 6.39 23.3191 6.42C23.4291 6.45 23.7591 6.785 24.3091 7.425C24.8691 8.065 25.1791 8.45 25.2391 8.58ZM23.1691 8.115C23.1991 7.985 23.2141 7.87 23.2141 7.77C23.2141 7.54 23.1491 7.415 23.0191 7.395C22.9091 7.395 22.5091 7.445 21.8191 7.545L21.7741 11.685C22.5141 11.815 22.9641 11.87 23.1241 11.85C23.2141 11.64 23.2291 10.395 23.1691 8.115ZM23.1691 12.57L22.3891 12.465C22.4291 12.755 22.5341 12.895 22.7041 12.885C22.8141 12.835 22.9691 12.73 23.1691 12.57ZM50.6573 18.585L50.4923 19.305L48.4823 21L43.9973 18.72L40.2023 11.13L37.3373 19.275L32.3273 7.965L30.9473 6.93L34.8323 6L34.1123 7.245L37.1573 14.835L39.2573 9.24L37.7123 7.26L42.1523 6.705L41.0873 8.64L43.8173 14.28L46.0373 8.37L44.7473 6.15H48.8123L47.7023 8.175L45.1223 15.555C46.8923 18.705 47.8773 20.28 48.0773 20.28C48.1473 20.26 48.2273 20.22 48.3173 20.16C48.5273 20.01 48.7673 19.75 49.0373 19.38L47.6723 18.66L50.6573 18.585ZM56.0641 16.005C56.0941 17.285 56.0591 18.2 55.9591 18.75C55.8691 19.25 55.6841 19.635 55.4041 19.905C54.7741 20.545 54.2041 20.865 53.6941 20.865C52.9341 20.865 52.3191 20.62 51.8491 20.13C51.7191 19.99 51.5991 19.845 51.4891 19.695C51.2391 19.355 51.0841 19.05 51.0241 18.78L50.9041 14.88L50.1391 14.76L50.4391 14.16C50.5791 14.27 50.7341 14.31 50.9041 14.28C51.0041 14.26 51.0691 14.205 51.0991 14.115C51.1391 14.015 51.1741 13.91 51.2041 13.8C51.2541 13.74 51.3641 13.655 51.5341 13.545C51.9541 13.275 52.6341 12.91 53.5741 12.45C53.9841 12.41 54.4491 12.58 54.9691 12.96C55.3791 13.28 55.6441 13.57 55.7641 13.83C55.9341 14.24 56.0341 14.965 56.0641 16.005ZM53.9941 13.395C53.7641 13.325 53.5641 13.325 53.3941 13.395C53.3041 13.445 53.2241 13.505 53.1541 13.575C52.9841 13.765 52.8691 14 52.8091 14.28C53.0991 14.24 53.3541 14.14 53.5741 13.98C53.6741 13.9 53.8141 13.705 53.9941 13.395ZM54.2341 19.365L54.2191 14.4C53.8891 14.55 53.6141 14.67 53.3941 14.76C53.2941 14.8 53.0791 14.895 52.7491 15.045V19.44C52.8491 19.88 53.0641 20.08 53.3941 20.04C53.6541 19.86 53.9341 19.635 54.2341 19.365ZM60.932 12.15C61.032 12.49 61.082 12.72 61.082 12.84C61.082 13.03 60.997 13.18 60.827 13.29C60.707 13.36 60.242 13.655 59.432 14.175L59.222 13.905C59.442 13.785 59.562 13.62 59.582 13.41C59.582 12.74 59.512 12.355 59.372 12.255C59.192 12.115 59.037 12.045 58.907 12.045V18.735C59.187 19.015 59.502 19.19 59.852 19.26C60.202 19.33 60.462 19.365 60.632 19.365V19.725C59.632 19.665 58.782 19.545 58.082 19.365C57.772 19.275 57.147 19.135 56.207 18.945L56.312 18.585C56.552 18.615 56.727 18.56 56.837 18.42C57.117 18 57.257 17.605 57.257 17.235V12.3L56.777 12.255L56.837 11.94L58.757 10.275L58.907 11.265L59.852 10.635C60.402 11.155 60.762 11.66 60.932 12.15ZM65.3293 20.88L61.5793 21C61.3093 21.09 61.6143 20.71 62.4943 19.86L63.1693 9.39L61.5943 10.17C62.9043 8.63 63.7693 7.535 64.1893 6.885C64.4393 6.495 64.5643 6.215 64.5643 6.045V6C64.5743 6.01 64.5743 6.025 64.5643 6.045L64.4293 19.86C64.8293 20.5 65.1293 20.84 65.3293 20.88ZM72.5121 9.855L71.5071 9.9L71.3121 18.735C70.1921 20.245 69.1221 21 68.1021 21C67.8121 21 67.5671 20.94 67.3671 20.82C66.9171 20.51 66.5621 20.25 66.3021 20.04C65.7921 19.64 65.4821 19.33 65.3721 19.11C65.2721 18.9 65.2221 18.29 65.2221 17.28C65.2221 16.43 65.2571 15.375 65.3271 14.115C65.8271 13.355 66.4621 12.925 67.2321 12.825C68.0321 12.735 68.6521 12.76 69.0921 12.9L69.0471 14.805C68.4371 14.195 67.9471 13.91 67.5771 13.95C67.3271 14.13 67.2071 14.89 67.2171 16.23V19.29C67.4871 19.58 67.7171 19.745 67.9071 19.785C67.9871 19.785 68.5471 19.48 69.5871 18.87L69.9471 6L72.5121 9.855Z" fill="url(#paint0_linear_96_923)"/>
<rect x="0.5" y="0.5" width="79" height="27" rx="13.5" stroke="url(#paint1_linear_96_923)"/>
<defs>
<linearGradient id="paint0_linear_96_923" x1="0" y1="17" x2="80" y2="17" gradientUnits="userSpaceOnUse">
<stop stop-color="#ECBC40"/>
<stop offset="0.510417" stop-color="#FFF1BA"/>
<stop offset="1" stop-color="#EDBD41"/>
</linearGradient>
<linearGradient id="paint1_linear_96_923" x1="40" y1="0" x2="40" y2="28" gradientUnits="userSpaceOnUse">
<stop offset="0.171875" stop-color="#312673"/>
<stop offset="0.739583" stop-color="#988CE3"/>
<stop offset="1" stop-color="#C6C1EA"/>
</linearGradient>
</defs>
</svg>
