<svg width="24" height="24" viewBox="0 0 24 24" fill="none" xmlns="http://www.w3.org/2000/svg">
<path fill-rule="evenodd" clip-rule="evenodd" d="M15 6H16.2344L17.7344 18L6.26555 18L7.76555 6H9V10C9 11.6569 10.3431 13 12 13C13.6569 13 15 11.6569 15 10V6ZM13 6H11V10C11 10.5523 11.4477 11 12 11C12.5523 11 13 10.5523 13 10V6ZM5.781 5.75193C5.90611 4.75107 6.75691 4 7.76555 4H16.2344C17.2431 4 18.0939 4.75107 18.219 5.75193L19.719 17.7519C19.8682 18.9456 18.9374 20 17.7344 20H6.26555C5.06256 20 4.13178 18.9456 4.281 17.7519L5.781 5.75193Z" fill="#FDFDFD"/>
</svg>
