<svg width="39" height="34" viewBox="0 0 39 34" fill="none" xmlns="http://www.w3.org/2000/svg">
<path d="M12.2344 33.1115C26.9153 33.1115 34.9437 20.7156 34.9437 9.96632C34.9437 9.61429 34.9367 9.26386 34.9211 8.91488C36.4833 7.76284 37.8315 6.33643 38.9024 4.70252C37.4723 5.35052 35.9334 5.78666 34.3189 5.9833C35.9668 4.97625 37.2318 3.38306 37.8287 1.48399C36.262 2.43127 34.5479 3.09904 32.7605 3.45854C31.3041 1.87736 29.2305 0.888428 26.9345 0.888428C22.5268 0.888428 18.9525 4.53141 18.9525 9.02194C18.9525 9.66037 19.0227 10.2811 19.1596 10.8768C12.526 10.5366 6.64386 7.29962 2.7072 2.37762C1.99817 3.61905 1.62523 5.02995 1.62647 6.46625C1.62647 9.28851 3.0355 11.7799 5.17829 13.2375C3.9108 13.1981 2.67114 12.8492 1.56353 12.2201C1.56234 12.2542 1.56234 12.2875 1.56234 12.324C1.56234 16.2635 4.31351 19.5528 7.96559 20.2981C7.27968 20.4885 6.5719 20.5847 5.86098 20.5843C5.34758 20.5843 4.84723 20.5328 4.36095 20.4377C5.37708 23.6698 8.32354 26.0219 11.8169 26.0876C9.08514 28.2699 5.64394 29.5697 1.90385 29.5697C1.26761 29.5702 0.631893 29.5326 0 29.457C3.53237 31.7645 7.72672 33.111 12.2348 33.111" fill="#A4A3A1"/>
</svg>
